<svg width="68" height="30" viewBox="0 0 68 30" fill="none" xmlns="http://www.w3.org/2000/svg">
<rect width="68" height="30" rx="8" fill="#222222" fill-opacity="0.05"/>
<path d="M12 23.12H28V7.12H12V23.12Z" fill="#222222"/>
<path d="M31.855 19.875L35.68 15.705C36.1 15.235 36.425 14.835 36.655 14.505C36.895 14.175 37.015 13.82 37.015 13.44C37.015 12.89 36.85 12.45 36.52 12.12C36.19 11.79 35.75 11.625 35.2 11.625C34.65 11.625 34.21 11.79 33.88 12.12C33.55 12.45 33.385 12.89 33.385 13.44H32.005C32.005 13.02 32.085 12.625 32.245 12.255C32.405 11.885 32.625 11.565 32.905 11.295C33.195 11.015 33.535 10.795 33.925 10.635C34.315 10.475 34.74 10.395 35.2 10.395C35.66 10.395 36.085 10.475 36.475 10.635C36.865 10.795 37.2 11.015 37.48 11.295C37.77 11.565 37.995 11.885 38.155 12.255C38.315 12.625 38.395 13.02 38.395 13.44C38.395 13.71 38.345 13.975 38.245 14.235C38.155 14.495 38.03 14.755 37.87 15.015C37.71 15.265 37.52 15.52 37.3 15.78C37.08 16.03 36.85 16.29 36.61 16.56L33.625 19.77H38.395V21H31.855V19.875ZM43.2221 21.105C42.6921 21.105 42.2221 21.025 41.8121 20.865C41.4021 20.705 41.0571 20.44 40.7771 20.07C40.4971 19.7 40.2821 19.215 40.1321 18.615C39.9921 18.015 39.9221 17.27 39.9221 16.38V14.88C39.9221 14.06 39.9921 13.365 40.1321 12.795C40.2821 12.215 40.4971 11.75 40.7771 11.4C41.0571 11.05 41.4021 10.795 41.8121 10.635C42.2221 10.475 42.6921 10.395 43.2221 10.395C43.7521 10.395 44.2221 10.475 44.6321 10.635C45.0421 10.795 45.3871 11.05 45.6671 11.4C45.9471 11.75 46.1571 12.215 46.2971 12.795C46.4471 13.365 46.5221 14.06 46.5221 14.88V16.38C46.5221 17.27 46.4471 18.015 46.2971 18.615C46.1571 19.215 45.9471 19.7 45.6671 20.07C45.3871 20.44 45.0421 20.705 44.6321 20.865C44.2221 21.025 43.7521 21.105 43.2221 21.105ZM43.2221 19.875C43.5221 19.875 43.7871 19.825 44.0171 19.725C44.2471 19.625 44.4421 19.445 44.6021 19.185C44.7721 18.915 44.8971 18.555 44.9771 18.105C45.0671 17.655 45.1121 17.08 45.1121 16.38V14.88C45.1121 14.24 45.0671 13.71 44.9771 13.29C44.8971 12.87 44.7721 12.535 44.6021 12.285C44.4421 12.035 44.2471 11.86 44.0171 11.76C43.7871 11.66 43.5221 11.61 43.2221 11.61C42.9221 11.61 42.6571 11.66 42.4271 11.76C42.1971 11.86 41.9971 12.035 41.8271 12.285C41.6671 12.535 41.5421 12.87 41.4521 13.29C41.3721 13.71 41.3321 14.24 41.3321 14.88V16.38C41.3321 17.08 41.3721 17.655 41.4521 18.105C41.5421 18.555 41.6671 18.915 41.8271 19.185C41.9971 19.445 42.1971 19.625 42.4271 19.725C42.6571 19.825 42.9221 19.875 43.2221 19.875ZM51.1691 21.105C50.6691 21.105 50.2141 21.03 49.8041 20.88C49.4041 20.73 49.0591 20.525 48.7691 20.265C48.4891 19.995 48.2691 19.685 48.1091 19.335C47.9591 18.985 47.8841 18.605 47.8841 18.195H49.2791C49.2791 18.675 49.4441 19.075 49.7741 19.395C50.1141 19.715 50.5791 19.875 51.1691 19.875C51.7591 19.875 52.2191 19.715 52.5491 19.395C52.8891 19.065 53.0591 18.655 53.0591 18.165C53.0591 17.555 52.8791 17.08 52.5191 16.74C52.1591 16.39 51.6091 16.215 50.8691 16.215H50.0741V14.985H50.8691C51.5691 14.985 52.0841 14.83 52.4141 14.52C52.7441 14.21 52.9091 13.76 52.9091 13.17C52.9091 12.72 52.7541 12.35 52.4441 12.06C52.1441 11.77 51.7191 11.625 51.1691 11.625C50.6191 11.625 50.1891 11.77 49.8791 12.06C49.5791 12.34 49.4291 12.7 49.4291 13.14H48.0341C48.0341 12.76 48.1041 12.405 48.2441 12.075C48.3941 11.735 48.6041 11.445 48.8741 11.205C49.1441 10.955 49.4741 10.76 49.8641 10.62C50.2541 10.47 50.6891 10.395 51.1691 10.395C51.6491 10.395 52.0791 10.47 52.4591 10.62C52.8491 10.76 53.1791 10.955 53.4491 11.205C53.7291 11.455 53.9391 11.75 54.0791 12.09C54.2291 12.42 54.3041 12.78 54.3041 13.17C54.3041 13.77 54.1441 14.275 53.8241 14.685C53.5041 15.095 53.1191 15.385 52.6691 15.555C53.2191 15.715 53.6541 16.025 53.9741 16.485C54.2941 16.945 54.4541 17.51 54.4541 18.18C54.4541 18.59 54.3741 18.975 54.2141 19.335C54.0641 19.685 53.8441 19.995 53.5541 20.265C53.2741 20.525 52.9291 20.73 52.5191 20.88C52.1191 21.03 51.6691 21.105 51.1691 21.105Z" fill="#222222"/>
</svg>
